<?xml version="1.0" standalone="no"?>
<!DOCTYPE svg PUBLIC "-//W3C//DTD SVG 20010904//EN"
 "http://www.w3.org/TR/2001/REC-SVG-20010904/DTD/svg10.dtd">
<svg version="1.0" xmlns="http://www.w3.org/2000/svg"
 width="1497.000000pt" height="1497.000000pt" viewBox="0 0 1497.000000 1497.000000"
 preserveAspectRatio="xMidYMid meet">
<metadata>
Created by potrace 1.14, written by Peter Selinger 2001-2017
</metadata>
<g transform="translate(0.000000,1497.000000) scale(0.100000,-0.100000)"
fill="#000000" stroke="none">
<path d="M8051 14950 c-70 -23 -119 -78 -127 -142 -4 -27 -8 -48 -10 -48 -2 0
-22 13 -46 29 -88 59 -194 73 -275 35 -53 -25 -133 -110 -165 -174 -81 -169
-16 -302 188 -385 l57 -23 -56 -26 c-100 -48 -148 -116 -150 -214 -1 -47 -3
-52 -20 -46 -39 12 -128 4 -173 -15 -50 -23 -115 -70 -155 -114 l-27 -28 -11
68 c-27 156 -88 272 -172 327 -44 29 -131 55 -169 50 -14 -2 -43 -5 -66 -8
-87 -11 -212 -72 -287 -141 -54 -49 -102 -142 -124 -240 -17 -78 2 -243 42
-356 l23 -65 -32 -36 c-26 -29 -42 -37 -81 -42 -130 -18 -204 -94 -205 -209 0
-27 -5 -57 -10 -67 -9 -17 -15 -15 -60 31 -114 114 -252 121 -382 19 -125 -98
-166 -212 -117 -320 l20 -44 -43 -36 c-23 -19 -56 -48 -73 -63 l-30 -28 -3 23
c-6 42 -25 93 -49 129 -63 95 -223 116 -333 43 -61 -41 -109 -157 -105 -257 0
-30 -2 -36 -15 -32 -100 39 -305 42 -381 6 -111 -53 -162 -143 -163 -294 l-1
-59 -40 -13 c-42 -15 -92 -65 -101 -102 -4 -13 -8 -23 -11 -23 -3 0 -27 22
-54 49 -133 133 -292 127 -435 -17 -70 -71 -89 -112 -88 -188 1 -49 7 -72 29
-110 29 -50 96 -121 140 -150 32 -21 32 -32 0 -29 -35 4 -113 -21 -158 -51
-27 -17 -47 -43 -64 -81 l-25 -55 -32 31 c-17 16 -56 41 -86 54 -150 65 -318
2 -510 -192 -174 -176 -208 -335 -100 -471 16 -21 30 -40 30 -42 0 -7 -97
-108 -104 -108 -3 0 -6 6 -6 13 0 22 -95 161 -143 208 -98 98 -226 126 -352
77 -52 -20 -145 -87 -202 -146 -221 -229 -261 -434 -113 -579 50 -49 150 -104
233 -128 l57 -17 -48 -35 c-26 -20 -61 -54 -77 -77 -27 -36 -30 -49 -30 -111
0 -58 5 -78 29 -120 56 -98 110 -130 205 -122 64 5 108 21 163 59 15 10 29 15
31 11 5 -8 26 -81 32 -113 2 -8 17 -76 33 -150 26 -117 50 -230 67 -320 3 -14
14 -70 25 -125 11 -55 42 -228 70 -385 27 -157 59 -334 70 -395 11 -60 22
-126 25 -145 2 -19 7 -46 9 -60 5 -26 41 -248 50 -310 3 -19 16 -105 30 -190
14 -85 27 -171 30 -190 3 -19 12 -80 21 -135 9 -55 18 -116 21 -135 2 -19 8
-60 14 -90 5 -30 12 -73 15 -95 3 -22 7 -53 10 -70 3 -16 7 -48 10 -70 3 -22
10 -67 15 -100 5 -33 12 -76 14 -95 8 -53 46 -312 51 -340 2 -14 20 -142 40
-285 20 -143 38 -271 40 -285 2 -14 9 -61 15 -105 6 -44 12 -91 14 -105 3 -14
10 -68 16 -120 7 -52 14 -104 16 -114 2 -11 11 -76 19 -145 9 -69 18 -137 20
-151 6 -36 24 -166 30 -225 3 -27 8 -61 10 -75 2 -14 11 -81 20 -150 19 -150
25 -197 30 -230 2 -14 7 -47 10 -75 3 -27 7 -66 10 -85 10 -78 16 -127 20
-160 2 -19 11 -93 20 -165 19 -159 23 -197 30 -255 7 -62 15 -138 20 -180 2
-19 7 -60 10 -90 3 -30 7 -70 9 -88 3 -18 8 -67 11 -110 4 -42 8 -89 11 -103
2 -14 6 -50 8 -80 3 -30 8 -85 11 -124 10 -105 13 -149 20 -275 4 -63 8 -116
10 -118 2 -2 47 -14 102 -26 112 -27 282 -72 320 -87 24 -9 25 -11 9 -28 -19
-21 -56 -121 -56 -151 0 -20 -1 -20 -35 5 -70 54 -168 64 -244 26 -47 -25
-124 -98 -146 -140 -16 -31 -29 -39 -40 -22 -8 14 -65 41 -107 50 -71 16 -167
-15 -251 -81 -37 -30 -37 -30 -28 -5 5 14 9 52 8 86 -1 34 -2 61 -1 61 0 0 24
-11 52 -25 101 -48 205 -29 297 56 99 92 123 181 68 263 -38 58 -80 92 -171
137 -43 21 -72 39 -65 39 19 0 88 74 109 116 28 58 28 221 -2 261 -53 71 -137
85 -259 43 -33 -12 -68 -24 -77 -27 -15 -5 -16 -1 -3 49 24 96 34 244 20 313
-18 88 -72 162 -142 196 -141 67 -446 -1 -582 -131 -57 -53 -72 -78 -95 -147
-36 -109 -10 -260 71 -410 33 -62 34 -63 10 -54 -64 24 -187 29 -271 10 -100
-22 -187 -110 -222 -224 -8 -27 -18 -91 -21 -141 -4 -62 -11 -98 -22 -113 -17
-22 -17 -22 -46 25 -61 96 -163 164 -252 166 -93 3 -174 -39 -269 -139 -164
-171 -182 -345 -51 -476 25 -25 59 -53 76 -63 17 -10 31 -21 31 -24 0 -3 -33
-13 -72 -22 -162 -40 -310 -143 -363 -253 -52 -110 -46 -251 16 -400 114 -274
307 -339 532 -179 68 48 230 213 287 293 43 59 45 61 55 39 33 -78 106 -128
185 -128 34 0 41 -4 60 -38 41 -73 136 -114 268 -114 l84 0 -20 -21 c-56 -62
-74 -151 -44 -218 42 -97 158 -180 253 -181 95 -1 195 65 269 180 18 28 36 52
39 52 4 0 17 -24 31 -52 32 -68 125 -167 185 -197 108 -54 251 -62 360 -21 14
5 25 8 25 5 0 -8 130 54 184 89 31 20 72 52 91 73 38 41 82 122 87 163 2 18
18 34 57 58 29 17 55 32 58 32 2 0 46 29 98 65 51 36 95 65 98 65 2 0 2 -24
-1 -53 -9 -111 33 -217 104 -266 127 -87 419 -58 552 54 17 14 43 50 58 80 46
94 40 208 -16 347 -16 40 -28 73 -27 75 2 1 17 -1 34 -6 97 -28 326 -32 422
-7 212 54 289 187 257 438 -5 37 -5 37 22 27 15 -6 155 -59 312 -119 306 -116
398 -152 585 -225 117 -46 192 -75 690 -272 329 -130 536 -212 560 -223 11 -5
236 -95 500 -200 264 -105 490 -195 503 -200 12 -6 32 -14 45 -20 12 -5 47
-19 77 -30 30 -11 64 -25 75 -30 11 -5 137 -55 280 -110 143 -55 269 -105 280
-110 26 -11 210 -80 295 -110 36 -13 69 -27 74 -32 21 -18 47 -5 158 82 64 50
121 90 126 90 6 0 12 4 14 9 2 5 53 46 113 90 61 44 120 90 133 101 12 11 22
17 22 13 0 -4 5 0 11 10 5 9 17 17 24 17 8 0 15 5 15 10 0 6 5 10 11 10 7 0
20 10 30 22 11 11 19 17 19 13 0 -5 7 0 15 11 8 10 15 15 15 11 0 -4 11 3 24
17 13 15 31 26 40 26 10 0 15 3 13 8 -3 4 7 16 22 27 24 18 25 18 11 0 -14
-17 -14 -17 7 -5 12 8 21 19 20 24 -1 6 5 11 13 11 8 0 14 6 13 12 -1 6 4 14
13 17 10 4 13 1 9 -7 -4 -6 0 -4 8 5 8 10 17 15 20 11 4 -3 7 2 7 11 0 12 5
16 16 12 8 -3 13 -2 9 3 -3 5 9 20 27 32 25 18 30 20 25 6 -5 -14 -4 -15 13
-5 11 7 15 15 9 19 -14 8 52 57 73 53 11 -1 15 3 11 14 -4 10 -2 13 5 8 7 -4
12 -2 12 3 0 6 5 11 11 11 5 0 7 -4 4 -10 -10 -16 1 -11 16 7 10 11 10 14 2 9
-8 -4 -13 -2 -13 5 0 6 8 9 19 6 14 -3 18 -1 14 9 -4 10 0 12 11 8 9 -4 16 -3
14 2 -2 5 0 9 3 9 3 0 17 13 31 29 19 22 27 26 33 16 6 -9 4 -11 -5 -5 -9 5
-11 4 -6 -4 4 -6 12 -9 17 -5 5 3 7 9 4 14 -7 12 25 42 40 37 6 -3 18 -1 26 5
11 8 10 8 -5 4 -16 -5 -17 -4 -6 9 7 8 16 12 21 9 5 -3 9 1 9 8 0 7 21 26 46
42 25 16 51 34 57 40 7 6 35 26 62 45 28 19 109 75 180 126 72 50 155 109 185
130 55 38 473 328 665 460 55 38 310 209 567 381 256 172 465 314 463 316 -1
2 -6 35 -9 75 -4 40 -9 87 -11 105 -2 18 -6 69 -10 113 -3 44 -8 100 -10 125
-5 50 -14 231 -21 415 -5 147 -5 727 0 885 7 196 16 392 21 465 2 39 7 111 10
160 3 50 8 113 10 140 2 28 7 86 10 130 3 44 7 100 10 125 2 25 7 79 10 120 4
41 8 86 10 100 2 14 7 59 10 100 3 41 8 86 10 100 2 14 7 59 10 100 4 41 8 82
10 90 2 8 6 47 10 87 8 89 10 108 18 158 4 22 9 61 12 88 12 113 16 143 20
167 3 14 7 48 11 75 3 28 7 61 9 75 2 14 7 48 10 75 4 28 13 91 20 140 8 50
17 110 20 135 6 48 23 155 31 205 9 55 13 80 19 125 3 25 8 52 10 60 2 8 7 33
10 55 3 23 7 50 9 62 3 11 7 38 10 59 30 186 119 678 192 1053 94 482 264
1242 385 1718 27 106 49 197 49 203 0 6 -8 10 -17 9 -54 -5 -71 2 -92 36 -11
19 -36 42 -55 51 l-34 17 57 37 c32 21 72 52 90 71 46 47 90 143 93 204 3 62
-10 163 -23 170 -5 4 -9 14 -9 24 0 43 -90 193 -152 252 -144 136 -323 104
-517 -94 l-53 -55 -59 45 -58 45 50 39 c101 81 134 185 89 282 -30 63 -125
150 -192 175 -107 40 -201 10 -310 -98 l-67 -67 -26 86 c-15 47 -32 92 -37 98
-9 11 -6 34 10 83 12 36 5 208 -12 270 -21 80 -66 173 -105 220 -37 45 -113
86 -173 93 -137 16 -328 -83 -529 -277 -44 -42 -81 -76 -83 -76 -2 0 -6 10
-10 23 -21 84 -124 204 -197 229 -28 10 -43 20 -40 29 16 53 -12 160 -55 208
-92 103 -144 133 -227 134 -83 1 -159 -34 -237 -109 -33 -31 -60 -53 -61 -48
-7 74 -45 199 -80 260 -52 93 -152 163 -230 164 l-36 0 7 38 c20 112 -49 285
-165 410 -87 94 -149 126 -240 126 -58 0 -80 -5 -130 -31 -33 -17 -71 -43 -84
-57 -28 -30 -49 -33 -58 -8 -14 37 -86 124 -131 156 -58 43 -108 58 -188 57
-35 0 -66 4 -69 9 -4 6 12 10 38 10 98 0 159 43 184 129 30 104 -3 232 -71
279 -64 44 -163 54 -263 29 l-51 -13 3 67 c6 111 -40 172 -149 200 -120 30
-234 -8 -277 -94 -12 -23 -21 -43 -20 -44 10 -18 -7 -5 -44 32 -68 67 -116 89
-200 90 -56 0 -80 -5 -120 -25 l-50 -26 -57 45 c-31 25 -55 47 -54 49 2 1 14
5 26 7 113 22 173 97 164 206 -9 105 -59 189 -132 221 -59 27 -143 19 -243
-22 -41 -16 -74 -30 -74 -30 0 0 0 19 1 43 2 71 -32 133 -91 164 -44 23 -160
25 -224 3z m-3368 -2912 c-5 -7 -24 -37 -42 -65 -19 -29 -39 -53 -45 -53 -6 0
-22 -3 -35 -7 -21 -5 -22 -3 -16 17 4 13 9 38 10 57 2 19 5 36 7 38 2 2 83 18
121 24 4 0 4 -5 0 -11z m65 -573 c5 -5 -22 -45 -30 -45 -4 0 -16 13 -28 29
l-21 30 38 -6 c21 -3 39 -7 41 -8z m-2543 -10072 c21 -49 20 -52 -20 -50 -37
2 -39 5 -51 69 l-6 38 31 -11 c22 -8 36 -22 46 -46z"/>
<path d="M10770 749 c0 -5 5 -7 10 -4 6 3 10 8 10 11 0 2 -4 4 -10 4 -5 0 -10
-5 -10 -11z"/>
</g>
</svg>
